<svg version="1.1" viewBox="0.0 0.0 308.0 190.0" fill="none" stroke="none" stroke-linecap="square" stroke-miterlimit="10" width="308" height="190" xmlns:xlink="http://www.w3.org/1999/xlink" xmlns="http://www.w3.org/2000/svg"><path fill="#ffffff" d="M0 0L308.0 0L308.0 190.0L0 190.0L0 0Z" fill-rule="nonzero"/><path stroke="#333333" stroke-width="1.0" stroke-linecap="butt" d="M36.5 160.5L298.5 160.5" fill-rule="nonzero"/><path stroke="#cccccc" stroke-width="1.0" stroke-linecap="butt" d="M36.5 135.5L298.5 135.5" fill-rule="nonzero"/><path stroke="#cccccc" stroke-width="1.0" stroke-linecap="butt" d="M36.5 111.5L298.5 111.5" fill-rule="nonzero"/><path stroke="#cccccc" stroke-width="1.0" stroke-linecap="butt" d="M36.5 86.5L298.5 86.5" fill-rule="nonzero"/><path stroke="#cccccc" stroke-width="1.0" stroke-linecap="butt" d="M36.5 61.5L298.5 61.5" fill-rule="nonzero"/><path stroke="#cccccc" stroke-width="1.0" stroke-linecap="butt" d="M36.5 36.5L298.5 36.5" fill-rule="nonzero"/><clipPath id="id_0"><path d="M36.5 36.833332L298.5 36.833332L298.5 160.5L36.5 160.5L36.5 36.833332Z" clip-rule="nonzero"/></clipPath><path stroke="#000000" stroke-width="0.0" stroke-linecap="butt" stroke-opacity="0.0" clip-path="url(#id_0)" d="M93.0 161.0L76.0 161.0L76.0 159.0C76.0 157.89543 76.89543 157.0 78.0 157.0L91.0 157.0C92.10457 157.0 93.0 157.89543 93.0 159.0Z" fill-rule="nonzero"/><path fill="#4285f4" clip-path="url(#id_0)" d="M93.0 161.0L76.0 161.0L76.0 159.0C76.0 157.89543 76.89543 157.0 78.0 157.0L91.0 157.0C92.10457 157.0 93.0 157.89543 93.0 159.0Z" fill-rule="nonzero"/><path stroke="#000000" stroke-width="0.0" stroke-linecap="butt" stroke-opacity="0.0" clip-path="url(#id_0)" d="M204.0 161.0L187.0 161.0L187.0 76.0C187.0 74.89543 187.89543 74.0 189.0 74.0L202.0 74.0C203.10457 74.0 204.0 74.89543 204.0 76.0Z" fill-rule="nonzero"/><path fill="#4285f4" clip-path="url(#id_0)" d="M204.0 161.0L187.0 161.0L187.0 76.0C187.0 74.89543 187.89543 74.0 189.0 74.0L202.0 74.0C203.10457 74.0 204.0 74.89543 204.0 76.0Z" fill-rule="nonzero"/><path stroke="#000000" stroke-width="0.0" stroke-linecap="butt" stroke-opacity="0.0" clip-path="url(#id_0)" d="M111.0 161.0L94.0 161.0L94.0 158.0C94.0 156.89543 94.89543 156.0 96.0 156.0L109.0 156.0C110.10457 156.0 111.0 156.89543 111.0 158.0Z" fill-rule="nonzero"/><path fill="#ea4335" clip-path="url(#id_0)" d="M111.0 161.0L94.0 161.0L94.0 158.0C94.0 156.89543 94.89543 156.0 96.0 156.0L109.0 156.0C110.10457 156.0 111.0 156.89543 111.0 158.0Z" fill-rule="nonzero"/><path stroke="#000000" stroke-width="0.0" stroke-linecap="butt" stroke-opacity="0.0" clip-path="url(#id_0)" d="M222.0 161.0L205.0 161.0L205.0 96.0C205.0 94.89543 205.89543 94.0 207.0 94.0L220.0 94.0C221.10457 94.0 222.0 94.89543 222.0 96.0Z" fill-rule="nonzero"/><path fill="#ea4335" clip-path="url(#id_0)" d="M222.0 161.0L205.0 161.0L205.0 96.0C205.0 94.89543 205.89543 94.0 207.0 94.0L220.0 94.0C221.10457 94.0 222.0 94.89543 222.0 96.0Z" fill-rule="nonzero"/><path stroke="#000000" stroke-width="0.0" stroke-linecap="butt" stroke-opacity="0.0" clip-path="url(#id_0)" d="M129.0 161.0L112.0 161.0L112.0 158.0C112.0 156.89543 112.89543 156.0 114.0 156.0L127.0 156.0C128.10457 156.0 129.0 156.89543 129.0 158.0Z" fill-rule="nonzero"/><path fill="#fbbc04" clip-path="url(#id_0)" d="M129.0 161.0L112.0 161.0L112.0 158.0C112.0 156.89543 112.89543 156.0 114.0 156.0L127.0 156.0C128.10457 156.0 129.0 156.89543 129.0 158.0Z" fill-rule="nonzero"/><path stroke="#000000" stroke-width="0.0" stroke-linecap="butt" stroke-opacity="0.0" clip-path="url(#id_0)" d="M240.0 161.0L223.0 161.0L223.0 96.0C223.0 94.89543 223.89543 94.0 225.0 94.0L238.0 94.0C239.10457 94.0 240.0 94.89543 240.0 96.0Z" fill-rule="nonzero"/><path fill="#fbbc04" clip-path="url(#id_0)" d="M240.0 161.0L223.0 161.0L223.0 96.0C223.0 94.89543 223.89543 94.0 225.0 94.0L238.0 94.0C239.10457 94.0 240.0 94.89543 240.0 96.0Z" fill-rule="nonzero"/><path stroke="#000000" stroke-width="0.0" stroke-linecap="butt" stroke-opacity="0.0" clip-path="url(#id_0)" d="M147.0 161.0L130.0 161.0L130.0 158.0C130.0 156.89543 130.89543 156.0 132.0 156.0L145.0 156.0C146.10457 156.0 147.0 156.89543 147.0 158.0Z" fill-rule="nonzero"/><path fill="#34a853" clip-path="url(#id_0)" d="M147.0 161.0L130.0 161.0L130.0 158.0C130.0 156.89543 130.89543 156.0 132.0 156.0L145.0 156.0C146.10457 156.0 147.0 156.89543 147.0 158.0Z" fill-rule="nonzero"/><path stroke="#000000" stroke-width="0.0" stroke-linecap="butt" stroke-opacity="0.0" clip-path="url(#id_0)" d="M258.0 161.0L241.0 161.0L241.0 45.0C241.0 43.89543 241.89543 43.0 243.0 43.0L256.0 43.0C257.10458 43.0 258.0 43.89543 258.0 45.0Z" fill-rule="nonzero"/><path fill="#34a853" clip-path="url(#id_0)" d="M258.0 161.0L241.0 161.0L241.0 45.0C241.0 43.89543 241.89543 43.0 243.0 43.0L256.0 43.0C257.10458 43.0 258.0 43.89543 258.0 45.0Z" fill-rule="nonzero"/><path fill="#000000" d="M24.0 160.26562Q24.0 158.73438 24.3125 157.8125Q24.625 156.875 25.234375 156.375Q25.859375 155.875 26.796875 155.875Q27.484375 155.875 28.0 156.15625Q28.53125 156.4375 28.875 156.96875Q29.21875 157.48438 29.40625 158.23438Q29.59375 158.98438 29.59375 160.26562Q29.59375 161.78125 29.28125 162.70312Q28.984375 163.625 28.359375 164.14062Q27.75 164.64062 26.796875 164.64062Q25.5625 164.64062 24.84375 163.75Q24.0 162.6875 24.0 160.26562ZM25.078125 160.26562Q25.078125 162.375 25.578125 163.07812Q26.078125 163.78125 26.796875 163.78125Q27.53125 163.78125 28.015625 163.07812Q28.515625 162.375 28.515625 160.26562Q28.515625 158.14062 28.015625 157.45312Q27.53125 156.75 26.78125 156.75Q26.0625 156.75 25.625 157.35938Q25.078125 158.14062 25.078125 160.26562Z" fill-rule="nonzero"/><path fill="#000000" d="M20.96875 139.76666L19.921875 139.76666L19.921875 133.04791Q19.53125 133.40729 18.90625 133.78229Q18.296875 134.14166 17.8125 134.31354L17.8125 133.29791Q18.6875 132.87604 19.34375 132.29791Q20.015625 131.70416 20.296875 131.14166L20.96875 131.14166L20.96875 139.76666ZM24.0 135.53229Q24.0 134.00104 24.3125 133.07916Q24.625 132.14166 25.234375 131.64166Q25.859375 131.14166 26.796875 131.14166Q27.484375 131.14166 28.0 131.42291Q28.53125 131.70416 28.875 132.23541Q29.21875 132.75104 29.40625 133.50104Q29.59375 134.25104 29.59375 135.53229Q29.59375 137.04791 29.28125 137.96979Q28.984375 138.89166 28.359375 139.40729Q27.75 139.90729 26.796875 139.90729Q25.5625 139.90729 24.84375 139.01666Q24.0 137.95416 24.0 135.53229ZM25.078125 135.53229Q25.078125 137.64166 25.578125 138.34479Q26.078125 139.04791 26.796875 139.04791Q27.53125 139.04791 28.015625 138.34479Q28.515625 137.64166 28.515625 135.53229Q28.515625 133.40729 28.015625 132.71979Q27.53125 132.01666 26.78125 132.01666Q26.0625 132.01666 25.625 132.62604Q25.078125 133.40729 25.078125 135.53229Z" fill-rule="nonzero"/><path fill="#000000" d="M22.546875 114.01771L22.546875 115.03333L16.859375 115.03333Q16.859375 114.65833 16.984375 114.29896Q17.203125 113.72083 17.671875 113.15833Q18.15625 112.59583 19.0625 111.86146Q20.46875 110.70521 20.953125 110.03333Q21.453125 109.36146 21.453125 108.76771Q21.453125 108.14271 21.0 107.72083Q20.546875 107.28333 19.828125 107.28333Q19.0625 107.28333 18.609375 107.73646Q18.15625 108.18958 18.140625 109.00208L17.0625 108.89271Q17.171875 107.67396 17.890625 107.04896Q18.625 106.40833 19.859375 106.40833Q21.09375 106.40833 21.8125 107.09583Q22.53125 107.78333 22.53125 108.79896Q22.53125 109.31458 22.3125 109.81458Q22.109375 110.29896 21.609375 110.86146Q21.125 111.40833 20.0 112.36146Q19.046875 113.15833 18.765625 113.45521Q18.5 113.73646 18.328125 114.01771L22.546875 114.01771ZM24.0 110.79896Q24.0 109.26771 24.3125 108.34583Q24.625 107.40833 25.234375 106.90833Q25.859375 106.40833 26.796875 106.40833Q27.484375 106.40833 28.0 106.68958Q28.53125 106.97083 28.875 107.50208Q29.21875 108.01771 29.40625 108.76771Q29.59375 109.51771 29.59375 110.79896Q29.59375 112.31458 29.28125 113.23646Q28.984375 114.15833 28.359375 114.67396Q27.75 115.17396 26.796875 115.17396Q25.5625 115.17396 24.84375 114.28333Q24.0 113.22083 24.0 110.79896ZM25.078125 110.79896Q25.078125 112.90833 25.578125 113.61146Q26.078125 114.31458 26.796875 114.31458Q27.53125 114.31458 28.015625 113.61146Q28.515625 112.90833 28.515625 110.79896Q28.515625 108.67396 28.015625 107.98646Q27.53125 107.28333 26.78125 107.28333Q26.0625 107.28333 25.625 107.89271Q25.078125 108.67396 25.078125 110.79896Z" fill-rule="nonzero"/><path fill="#000000" d="M17.0 88.03438L18.0625 87.89375Q18.234375 88.78438 18.671875 89.19063Q19.109375 89.58125 19.734375 89.58125Q20.484375 89.58125 21.0 89.06563Q21.515625 88.55 21.515625 87.78438Q21.515625 87.06563 21.03125 86.59688Q20.5625 86.1125 19.828125 86.1125Q19.53125 86.1125 19.078125 86.2375L19.203125 85.3Q19.3125 85.31563 19.375 85.31563Q20.046875 85.31563 20.578125 84.97188Q21.125 84.6125 21.125 83.87813Q21.125 83.3 20.734375 82.925Q20.34375 82.53438 19.71875 82.53438Q19.109375 82.53438 18.6875 82.925Q18.28125 83.31563 18.171875 84.08125L17.109375 83.89375Q17.296875 82.84688 17.984375 82.26875Q18.671875 81.675 19.6875 81.675Q20.390625 81.675 20.984375 81.9875Q21.578125 82.28438 21.890625 82.8Q22.203125 83.31563 22.203125 83.90938Q22.203125 84.45625 21.90625 84.925Q21.609375 85.37813 21.03125 85.64375Q21.78125 85.81563 22.203125 86.37813Q22.625 86.925 22.625 87.76875Q22.625 88.89375 21.796875 89.675Q20.984375 90.45625 19.734375 90.45625Q18.609375 90.45625 17.859375 89.78438Q17.109375 89.09688 17.0 88.03438ZM24.0 86.06563Q24.0 84.53438 24.3125 83.6125Q24.625 82.675 25.234375 82.175Q25.859375 81.675 26.796875 81.675Q27.484375 81.675 28.0 81.95625Q28.53125 82.2375 28.875 82.76875Q29.21875 83.28438 29.40625 84.03438Q29.59375 84.78438 29.59375 86.06563Q29.59375 87.58125 29.28125 88.50313Q28.984375 89.425 28.359375 89.94063Q27.75 90.44063 26.796875 90.44063Q25.5625 90.44063 24.84375 89.55Q24.0 88.4875 24.0 86.06563ZM25.078125 86.06563Q25.078125 88.175 25.578125 88.87813Q26.078125 89.58125 26.796875 89.58125Q27.53125 89.58125 28.015625 88.87813Q28.515625 88.175 28.515625 86.06563Q28.515625 83.94063 28.015625 83.25313Q27.53125 82.55 26.78125 82.55Q26.0625 82.55 25.625 83.15938Q25.078125 83.94063 25.078125 86.06563Z" fill-rule="nonzero"/><path fill="#000000" d="M20.375 65.566666L20.375 63.504166L16.65625 63.504166L16.65625 62.535416L20.578125 56.972916L21.4375 56.972916L21.4375 62.535416L22.59375 62.535416L22.59375 63.504166L21.4375 63.504166L21.4375 65.566666L20.375 65.566666ZM20.375 62.535416L20.375 58.67604L17.6875 62.535416L20.375 62.535416ZM24.0 61.33229Q24.0 59.80104 24.3125 58.879166Q24.625 57.941666 25.234375 57.441666Q25.859375 56.941666 26.796875 56.941666Q27.484375 56.941666 28.0 57.222916Q28.53125 57.504166 28.875 58.035416Q29.21875 58.55104 29.40625 59.30104Q29.59375 60.05104 29.59375 61.33229Q29.59375 62.847916 29.28125 63.76979Q28.984375 64.691666 28.359375 65.20729Q27.75 65.70729 26.796875 65.70729Q25.5625 65.70729 24.84375 64.816666Q24.0 63.754166 24.0 61.33229ZM25.078125 61.33229Q25.078125 63.441666 25.578125 64.14479Q26.078125 64.847916 26.796875 64.847916Q27.53125 64.847916 28.015625 64.14479Q28.515625 63.441666 28.515625 61.33229Q28.515625 59.20729 28.015625 58.51979Q27.53125 57.816666 26.78125 57.816666Q26.0625 57.816666 25.625 58.42604Q25.078125 59.20729 25.078125 61.33229Z" fill-rule="nonzero"/><path fill="#000000" d="M17.0 38.583332L18.109375 38.489582Q18.234375 39.302082 18.671875 39.708332Q19.125 40.114582 19.765625 40.114582Q20.515625 40.114582 21.046875 39.536457Q21.578125 38.958332 21.578125 38.020832Q21.578125 37.114582 21.0625 36.598957Q20.5625 36.067707 19.734375 36.067707Q19.234375 36.067707 18.8125 36.302082Q18.40625 36.536457 18.171875 36.895832L17.1875 36.770832L18.015625 32.364582L22.296875 32.364582L22.296875 33.364582L18.859375 33.364582L18.40625 35.677082Q19.171875 35.130207 20.015625 35.130207Q21.140625 35.130207 21.90625 35.911457Q22.6875 36.692707 22.6875 37.927082Q22.6875 39.083332 22.015625 39.942707Q21.1875 40.973957 19.765625 40.973957Q18.59375 40.973957 17.84375 40.317707Q17.109375 39.661457 17.0 38.583332ZM24.0 36.598957Q24.0 35.067707 24.3125 34.145832Q24.625 33.208332 25.234375 32.708332Q25.859375 32.208332 26.796875 32.208332Q27.484375 32.208332 28.0 32.489582Q28.53125 32.770832 28.875 33.302082Q29.21875 33.817707 29.40625 34.567707Q29.59375 35.317707 29.59375 36.598957Q29.59375 38.114582 29.28125 39.036457Q28.984375 39.958332 28.359375 40.473957Q27.75 40.973957 26.796875 40.973957Q25.5625 40.973957 24.84375 40.083332Q24.0 39.020832 24.0 36.598957ZM25.078125 36.598957Q25.078125 38.708332 25.578125 39.411457Q26.078125 40.114582 26.796875 40.114582Q27.53125 40.114582 28.015625 39.411457Q28.515625 38.708332 28.515625 36.598957Q28.515625 34.473957 28.015625 33.786457Q27.53125 33.083332 26.78125 33.083332Q26.0625 33.083332 25.625 33.692707Q25.078125 34.473957 25.078125 36.598957Z" fill-rule="nonzero"/><path fill="#000000" d="M87.02094 177.5L86.03657 177.5L86.03657 168.90625L87.09907 168.90625L87.09907 171.96875Q87.77094 171.14062 88.80219 171.14062Q89.38032 171.14062 89.88032 171.375Q90.39594 171.59375 90.72407 172.01562Q91.06782 172.4375 91.25532 173.03125Q91.44282 173.625 91.44282 174.29688Q91.44282 175.89062 90.64594 176.76562Q89.84907 177.64062 88.75532 177.64062Q87.64594 177.64062 87.02094 176.71875L87.02094 177.5ZM87.00532 174.34375Q87.00532 175.45312 87.31782 175.95312Q87.81782 176.76562 88.66157 176.76562Q89.34907 176.76562 89.84907 176.17188Q90.36469 175.57812 90.36469 174.375Q90.36469 173.15625 89.88032 172.57812Q89.39594 172.0 88.70844 172.0Q88.02094 172.0 87.50532 172.60938Q87.00532 173.20312 87.00532 174.34375ZM97.11469 176.73438Q96.52094 177.23438 95.97407 177.4375Q95.44282 177.64062 94.81782 177.64062Q93.78657 177.64062 93.23969 177.14062Q92.69282 176.64062 92.69282 175.85938Q92.69282 175.40625 92.89594 175.03125Q93.09907 174.64062 93.44282 174.42188Q93.78657 174.1875 94.20844 174.07812Q94.50532 173.98438 95.14594 173.90625Q96.41157 173.76562 97.02094 173.54688Q97.02094 173.32812 97.02094 173.28125Q97.02094 172.625 96.72407 172.35938Q96.31782 172.01562 95.52094 172.01562Q94.78657 172.01562 94.42719 172.28125Q94.06782 172.53125 93.89594 173.1875L92.86469 173.04688Q93.00532 172.39062 93.33344 171.98438Q93.66157 171.57812 94.27094 171.35938Q94.88032 171.14062 95.67719 171.14062Q96.47407 171.14062 96.97407 171.32812Q97.47407 171.51562 97.70844 171.79688Q97.94282 172.07812 98.03657 172.51562Q98.08344 172.78125 98.08344 173.48438L98.08344 174.89062Q98.08344 176.35938 98.14594 176.75Q98.22407 177.14062 98.42719 177.5L97.31782 177.5Q97.16157 177.17188 97.11469 176.73438ZM97.02094 174.375Q96.44282 174.60938 95.30219 174.78125Q94.64594 174.875 94.38032 175.0Q94.11469 175.10938 93.95844 175.32812Q93.81782 175.54688 93.81782 175.82812Q93.81782 176.25 94.13032 176.53125Q94.45844 176.8125 95.06782 176.8125Q95.67719 176.8125 96.14594 176.54688Q96.63032 176.28125 96.84907 175.8125Q97.02094 175.45312 97.02094 174.76562L97.02094 174.375ZM104.11469 175.21875L105.14594 175.35938Q104.97407 176.42188 104.27094 177.03125Q103.56782 177.64062 102.55219 177.64062Q101.27094 177.64062 100.48969 176.8125Q99.72407 175.96875 99.72407 174.40625Q99.72407 173.40625 100.05219 172.65625Q100.39594 171.89062 101.06782 171.51562Q101.75532 171.14062 102.56782 171.14062Q103.56782 171.14062 104.20844 171.65625Q104.86469 172.15625 105.05219 173.10938L104.02094 173.26562Q103.88032 172.64062 103.50532 172.32812Q103.13032 172.0 102.59907 172.0Q101.80219 172.0 101.30219 172.57812Q100.80219 173.14062 100.80219 174.375Q100.80219 175.64062 101.28657 176.20312Q101.77094 176.76562 102.53657 176.76562Q103.16157 176.76562 103.56782 176.39062Q103.98969 176.01562 104.11469 175.21875ZM106.05219 177.5L106.05219 168.90625L107.11469 168.90625L107.11469 173.8125L109.59907 171.28125L110.97407 171.28125L108.58344 173.57812L111.20844 177.5L109.91157 177.5L107.84907 174.3125L107.11469 175.03125L107.11469 177.5L106.05219 177.5ZM113.19282 177.5L111.28657 171.28125L112.38032 171.28125L113.36469 174.875L113.73969 176.20312Q113.77094 176.10938 114.06782 174.92188L115.05219 171.28125L116.13032 171.28125L117.06782 174.89062L117.38032 176.07812L117.73969 174.875L118.80219 171.28125L119.83344 171.28125L117.88032 177.5L116.78657 177.5L115.80219 173.76562L115.55219 172.71875L114.30219 177.5L113.19282 177.5ZM125.11469 176.73438Q124.52094 177.23438 123.97407 177.4375Q123.44282 177.64062 122.81782 177.64062Q121.78657 177.64062 121.23969 177.14062Q120.69282 176.64062 120.69282 175.85938Q120.69282 175.40625 120.89594 175.03125Q121.09907 174.64062 121.44282 174.42188Q121.78657 174.1875 122.20844 174.07812Q122.50532 173.98438 123.14594 173.90625Q124.41157 173.76562 125.02094 173.54688Q125.02094 173.32812 125.02094 173.28125Q125.02094 172.625 124.72407 172.35938Q124.31782 172.01562 123.52094 172.01562Q122.78657 172.01562 122.42719 172.28125Q122.06782 172.53125 121.89594 173.1875L120.86469 173.04688Q121.00532 172.39062 121.33344 171.98438Q121.66157 171.57812 122.27094 171.35938Q122.88032 171.14062 123.67719 171.14062Q124.47407 171.14062 124.97407 171.32812Q125.47407 171.51562 125.70844 171.79688Q125.94282 172.07812 126.03657 172.51562Q126.08344 172.78125 126.08344 173.48438L126.08344 174.89062Q126.08344 176.35938 126.14594 176.75Q126.22407 177.14062 126.42719 177.5L125.31782 177.5Q125.16157 177.17188 125.11469 176.73438ZM125.02094 174.375Q124.44282 174.60938 123.30219 174.78125Q122.64594 174.875 122.38032 175.0Q122.11469 175.10938 121.95844 175.32812Q121.81782 175.54688 121.81782 175.82812Q121.81782 176.25 122.13032 176.53125Q122.45844 176.8125 123.06782 176.8125Q123.67719 176.8125 124.14594 176.54688Q124.63032 176.28125 124.84907 175.8125Q125.02094 175.45312 125.02094 174.76562L125.02094 174.375ZM128.03656 177.5L128.03656 171.28125L128.98969 171.28125L128.98969 172.21875Q129.34906 171.5625 129.64594 171.35938Q129.95844 171.14062 130.33344 171.14062Q130.86469 171.14062 131.41156 171.46875L131.05219 172.45312Q130.66156 172.21875 130.28656 172.21875Q129.92719 172.21875 129.64594 172.4375Q129.38031 172.64062 129.27094 173.01562Q129.08344 173.57812 129.08344 174.23438L129.08344 177.5L128.03656 177.5ZM136.08344 177.5L136.08344 176.71875Q135.48969 177.64062 134.34906 177.64062Q133.59906 177.64062 132.97406 177.23438Q132.34906 176.8125 132.00531 176.07812Q131.66156 175.34375 131.66156 174.39062Q131.66156 173.46875 131.97406 172.70312Q132.28656 171.9375 132.91156 171.54688Q133.53656 171.14062 134.30219 171.14062Q134.86469 171.14062 135.30219 171.375Q135.73969 171.60938 136.02094 171.98438L136.02094 168.90625L137.06781 168.90625L137.06781 177.5L136.08344 177.5ZM132.75531 174.39062Q132.75531 175.59375 133.25531 176.1875Q133.75531 176.76562 134.44281 176.76562Q135.13031 176.76562 135.61469 176.20312Q136.09906 175.64062 136.09906 174.48438Q136.09906 173.20312 135.59906 172.60938Q135.11469 172.01562 134.39594 172.01562Q133.69281 172.01562 133.22406 172.59375Q132.75531 173.15625 132.75531 174.39062Z" fill-rule="nonzero"/><path fill="#000000" d="M203.79155 177.5L203.79155 172.09375L202.85405 172.09375L202.85405 171.28125L203.79155 171.28125L203.79155 170.60938Q203.79155 169.98438 203.90092 169.6875Q204.05717 169.26562 204.43217 169.01562Q204.8228 168.76562 205.5103 168.76562Q205.96342 168.76562 206.49467 168.875L206.33842 169.78125Q206.0103 169.73438 205.71342 169.73438Q205.22905 169.73438 205.02592 169.9375Q204.83842 170.14062 204.83842 170.70312L204.83842 171.28125L206.05717 171.28125L206.05717 172.09375L204.83842 172.09375L204.83842 177.5L203.79155 177.5ZM206.15092 174.39062Q206.15092 172.65625 207.10405 171.82812Q207.90092 171.14062 209.05717 171.14062Q210.33842 171.14062 211.15092 171.98438Q211.97905 172.8125 211.97905 174.29688Q211.97905 175.5 211.61967 176.1875Q211.2603 176.875 210.55717 177.26562Q209.86967 177.64062 209.05717 177.64062Q207.7603 177.64062 206.9478 176.8125Q206.15092 175.96875 206.15092 174.39062ZM207.22905 174.39062Q207.22905 175.57812 207.74467 176.17188Q208.27592 176.76562 209.05717 176.76562Q209.85405 176.76562 210.36967 176.17188Q210.8853 175.57812 210.8853 174.35938Q210.8853 173.20312 210.35405 172.60938Q209.83842 172.01562 209.05717 172.01562Q208.27592 172.01562 207.74467 172.60938Q207.22905 173.1875 207.22905 174.39062ZM213.52592 177.5L213.52592 171.28125L214.47905 171.28125L214.47905 172.21875Q214.83842 171.5625 215.1353 171.35938Q215.4478 171.14062 215.8228 171.14062Q216.35405 171.14062 216.90092 171.46875L216.54155 172.45312Q216.15092 172.21875 215.77592 172.21875Q215.41655 172.21875 215.1353 172.4375Q214.86967 172.64062 214.7603 173.01562Q214.5728 173.57812 214.5728 174.23438L214.5728 177.5L213.52592 177.5ZM218.68217 177.5L216.77592 171.28125L217.86967 171.28125L218.85405 174.875L219.22905 176.20312Q219.2603 176.10938 219.55717 174.92188L220.54155 171.28125L221.61967 171.28125L222.55717 174.89062L222.86967 176.07812L223.22905 174.875L224.29155 171.28125L225.3228 171.28125L223.36967 177.5L222.27592 177.5L221.29155 173.76562L221.04155 172.71875L219.79155 177.5L218.68217 177.5ZM230.60405 176.73438Q230.0103 177.23438 229.46342 177.4375Q228.93217 177.64062 228.30717 177.64062Q227.27592 177.64062 226.72905 177.14062Q226.18217 176.64062 226.18217 175.85938Q226.18217 175.40625 226.3853 175.03125Q226.58842 174.64062 226.93217 174.42188Q227.27592 174.1875 227.6978 174.07812Q227.99467 173.98438 228.6353 173.90625Q229.90092 173.76562 230.5103 173.54688Q230.5103 173.32812 230.5103 173.28125Q230.5103 172.625 230.21342 172.35938Q229.80717 172.01562 229.0103 172.01562Q228.27592 172.01562 227.91655 172.28125Q227.55717 172.53125 227.3853 173.1875L226.35405 173.04688Q226.49467 172.39062 226.8228 171.98438Q227.15092 171.57812 227.7603 171.35938Q228.36967 171.14062 229.16655 171.14062Q229.96342 171.14062 230.46342 171.32812Q230.96342 171.51562 231.1978 171.79688Q231.43217 172.07812 231.52592 172.51562Q231.5728 172.78125 231.5728 173.48438L231.5728 174.89062Q231.5728 176.35938 231.6353 176.75Q231.71342 177.14062 231.91655 177.5L230.80717 177.5Q230.65092 177.17188 230.60405 176.73438ZM230.5103 174.375Q229.93217 174.60938 228.79155 174.78125Q228.1353 174.875 227.86967 175.0Q227.60405 175.10938 227.4478 175.32812Q227.30717 175.54688 227.30717 175.82812Q227.30717 176.25 227.61967 176.53125Q227.9478 176.8125 228.55717 176.8125Q229.16655 176.8125 229.6353 176.54688Q230.11967 176.28125 230.33842 175.8125Q230.5103 175.45312 230.5103 174.76562L230.5103 174.375ZM233.52592 177.5L233.52592 171.28125L234.47905 171.28125L234.47905 172.21875Q234.83842 171.5625 235.1353 171.35938Q235.4478 171.14062 235.8228 171.14062Q236.35405 171.14062 236.90092 171.46875L236.54155 172.45312Q236.15092 172.21875 235.77592 172.21875Q235.41655 172.21875 235.1353 172.4375Q234.86967 172.64062 234.7603 173.01562Q234.5728 173.57812 234.5728 174.23438L234.5728 177.5L233.52592 177.5ZM241.5728 177.5L241.5728 176.71875Q240.97905 177.64062 239.83842 177.64062Q239.08842 177.64062 238.46342 177.23438Q237.83842 176.8125 237.49467 176.07812Q237.15092 175.34375 237.15092 174.39062Q237.15092 173.46875 237.46342 172.70312Q237.77592 171.9375 238.40092 171.54688Q239.02592 171.14062 239.79155 171.14062Q240.35405 171.14062 240.79155 171.375Q241.22905 171.60938 241.5103 171.98438L241.5103 168.90625L242.55717 168.90625L242.55717 177.5L241.5728 177.5ZM238.24467 174.39062Q238.24467 175.59375 238.74467 176.1875Q239.24467 176.76562 239.93217 176.76562Q240.61967 176.76562 241.10405 176.20312Q241.58842 175.64062 241.58842 174.48438Q241.58842 173.20312 241.08842 172.60938Q240.60405 172.01562 239.8853 172.01562Q239.18217 172.01562 238.71342 172.59375Q238.24467 173.15625 238.24467 174.39062Z" fill-rule="nonzero"/><path fill="#4285f4" d="M21.0 11.5C21.0 10.947715 21.447716 10.5 22.0 10.5L32.0 10.5C32.552284 10.5 33.0 10.947715 33.0 11.5L33.0 21.5C33.0 22.052284 32.552284 22.5 32.0 22.5L22.0 22.5C21.447716 22.5 21.0 22.052284 21.0 21.5Z" fill-rule="nonzero"/><path fill="#1a1a1a" d="M41.40625 17.390625Q41.40625 15.65625 42.359375 14.828125Q43.15625 14.140625 44.3125 14.140625Q45.59375 14.140625 46.40625 14.984375Q47.234375 15.8125 47.234375 17.296875Q47.234375 18.5 46.875 19.1875Q46.515625 19.875 45.8125 20.265625Q45.125 20.640625 44.3125 20.640625Q43.015625 20.640625 42.203125 19.8125Q41.40625 18.96875 41.40625 17.390625ZM42.484375 17.390625Q42.484375 18.578125 43.0 19.171875Q43.53125 19.765625 44.3125 19.765625Q45.109375 19.765625 45.625 19.171875Q46.140625 18.578125 46.140625 17.359375Q46.140625 16.203125 45.609375 15.609375Q45.09375 15.015625 44.3125 15.015625Q43.53125 15.015625 43.0 15.609375Q42.484375 16.1875 42.484375 17.390625ZM48.78125 20.5L48.78125 14.28125L49.734375 14.28125L49.734375 15.21875Q50.09375 14.5625 50.390625 14.359375Q50.703125 14.140625 51.078125 14.140625Q51.609375 14.140625 52.15625 14.46875L51.796875 15.453125Q51.40625 15.21875 51.03125 15.21875Q50.671875 15.21875 50.390625 15.4375Q50.125 15.640625 50.015625 16.015625Q49.828125 16.578125 49.828125 17.234375L49.828125 20.5L48.78125 20.5ZM52.796875 13.125L52.796875 11.90625L53.859375 11.90625L53.859375 13.125L52.796875 13.125ZM52.796875 20.5L52.796875 14.28125L53.859375 14.28125L53.859375 20.5L52.796875 20.5ZM55.59375 21.015625L56.625 21.171875Q56.6875 21.640625 56.984375 21.859375Q57.375 22.15625 58.046875 22.15625Q58.78125 22.15625 59.171875 21.859375Q59.578125 21.5625 59.71875 21.046875Q59.8125 20.71875 59.796875 19.6875Q59.109375 20.5 58.078125 20.5Q56.796875 20.5 56.09375 19.578125Q55.390625 18.640625 55.390625 17.359375Q55.390625 16.46875 55.703125 15.71875Q56.03125 14.953125 56.640625 14.546875Q57.25 14.140625 58.078125 14.140625Q59.1875 14.140625 59.90625 15.03125L59.90625 14.28125L60.875 14.28125L60.875 19.65625Q60.875 21.109375 60.578125 21.71875Q60.28125 22.328125 59.640625 22.671875Q59.0 23.03125 58.0625 23.03125Q56.953125 23.03125 56.265625 22.53125Q55.578125 22.03125 55.59375 21.015625ZM56.46875 17.28125Q56.46875 18.5 56.953125 19.0625Q57.4375 19.625 58.171875 19.625Q58.90625 19.625 59.390625 19.0625Q59.890625 18.5 59.890625 17.3125Q59.890625 16.171875 59.375 15.59375Q58.875 15.015625 58.15625 15.015625Q57.453125 15.015625 56.953125 15.59375Q56.46875 16.15625 56.46875 17.28125ZM62.796875 13.125L62.796875 11.90625L63.859375 11.90625L63.859375 13.125L62.796875 13.125ZM62.796875 20.5L62.796875 14.28125L63.859375 14.28125L63.859375 20.5L62.796875 20.5ZM65.796875 20.5L65.796875 14.28125L66.734375 14.28125L66.734375 15.15625Q67.421875 14.140625 68.71875 14.140625Q69.28125 14.140625 69.75 14.34375Q70.234375 14.546875 70.46875 14.875Q70.703125 15.203125 70.796875 15.640625Q70.84375 15.9375 70.84375 16.671875L70.84375 20.5L69.796875 20.5L69.796875 16.71875Q69.796875 16.0625 69.671875 15.75Q69.546875 15.4375 69.234375 15.25Q68.921875 15.046875 68.5 15.046875Q67.828125 15.046875 67.328125 15.484375Q66.84375 15.90625 66.84375 17.09375L66.84375 20.5L65.796875 20.5ZM76.859375 19.734375Q76.265625 20.234375 75.71875 20.4375Q75.1875 20.640625 74.5625 20.640625Q73.53125 20.640625 72.984375 20.140625Q72.4375 19.640625 72.4375 18.859375Q72.4375 18.40625 72.640625 18.03125Q72.84375 17.640625 73.1875 17.421875Q73.53125 17.1875 73.953125 17.078125Q74.25 16.984375 74.890625 16.90625Q76.15625 16.765625 76.765625 16.546875Q76.765625 16.328125 76.765625 16.28125Q76.765625 15.625 76.46875 15.359375Q76.0625 15.015625 75.265625 15.015625Q74.53125 15.015625 74.171875 15.28125Q73.8125 15.53125 73.640625 16.1875L72.609375 16.046875Q72.75 15.390625 73.078125 14.984375Q73.40625 14.578125 74.015625 14.359375Q74.625 14.140625 75.421875 14.140625Q76.21875 14.140625 76.71875 14.328125Q77.21875 14.515625 77.453125 14.796875Q77.6875 15.078125 77.78125 15.515625Q77.828125 15.78125 77.828125 16.484375L77.828125 17.890625Q77.828125 19.359375 77.890625 19.75Q77.96875 20.140625 78.171875 20.5L77.0625 20.5Q76.90625 20.171875 76.859375 19.734375ZM76.765625 17.375Q76.1875 17.609375 75.046875 17.78125Q74.390625 17.875 74.125 18.0Q73.859375 18.109375 73.703125 18.328125Q73.5625 18.546875 73.5625 18.828125Q73.5625 19.25 73.875 19.53125Q74.203125 19.8125 74.8125 19.8125Q75.421875 19.8125 75.890625 19.546875Q76.375 19.28125 76.59375 18.8125Q76.765625 18.453125 76.765625 17.765625L76.765625 17.375ZM79.765625 20.5L79.765625 11.90625L80.828125 11.90625L80.828125 20.5L79.765625 20.5Z" fill-rule="nonzero"/><path fill="#ea4335" d="M98.0 11.5C98.0 10.947715 98.447716 10.5 99.0 10.5L109.0 10.5C109.552284 10.5 110.0 10.947715 110.0 11.5L110.0 21.5C110.0 22.052284 109.552284 22.5 109.0 22.5L99.0 22.5C98.447716 22.5 98.0 22.052284 98.0 21.5Z" fill-rule="nonzero"/><path fill="#1a1a1a" d="M118.796875 13.125L118.796875 11.90625L119.859375 11.90625L119.859375 13.125L118.796875 13.125ZM118.796875 20.5L118.796875 14.28125L119.859375 14.28125L119.859375 20.5L118.796875 20.5ZM125.828125 20.5L125.828125 19.71875Q125.234375 20.640625 124.09375 20.640625Q123.34375 20.640625 122.71875 20.234375Q122.09375 19.8125 121.75 19.078125Q121.40625 18.34375 121.40625 17.390625Q121.40625 16.46875 121.71875 15.703125Q122.03125 14.9375 122.65625 14.546875Q123.28125 14.140625 124.046875 14.140625Q124.609375 14.140625 125.046875 14.375Q125.484375 14.609375 125.765625 14.984375L125.765625 11.90625L126.8125 11.90625L126.8125 20.5L125.828125 20.5ZM122.5 17.390625Q122.5 18.59375 123.0 19.1875Q123.5 19.765625 124.1875 19.765625Q124.875 19.765625 125.359375 19.203125Q125.84375 18.640625 125.84375 17.484375Q125.84375 16.203125 125.34375 15.609375Q124.859375 15.015625 124.140625 15.015625Q123.4375 15.015625 122.96875 15.59375Q122.5 16.15625 122.5 17.390625ZM133.04688 18.5L134.14062 18.625Q133.89062 19.578125 133.1875 20.109375Q132.48438 20.640625 131.40625 20.640625Q130.04688 20.640625 129.23438 19.796875Q128.4375 18.953125 128.4375 17.4375Q128.4375 15.875 129.25 15.015625Q130.0625 14.140625 131.34375 14.140625Q132.59375 14.140625 133.375 14.984375Q134.17188 15.828125 134.17188 17.375Q134.17188 17.46875 134.17188 17.65625L129.53125 17.65625Q129.59375 18.6875 130.10938 19.234375Q130.625 19.765625 131.40625 19.765625Q131.98438 19.765625 132.39062 19.46875Q132.8125 19.15625 133.04688 18.5ZM129.59375 16.796875L133.0625 16.796875Q133.0 16.0 132.67188 15.609375Q132.15625 15.0 131.35938 15.0Q130.625 15.0 130.125 15.484375Q129.64062 15.96875 129.59375 16.796875ZM139.85938 19.734375Q139.26562 20.234375 138.71875 20.4375Q138.1875 20.640625 137.5625 20.640625Q136.53125 20.640625 135.98438 20.140625Q135.4375 19.640625 135.4375 18.859375Q135.4375 18.40625 135.64062 18.03125Q135.84375 17.640625 136.1875 17.421875Q136.53125 17.1875 136.95312 17.078125Q137.25 16.984375 137.89062 16.90625Q139.15625 16.765625 139.76562 16.546875Q139.76562 16.328125 139.76562 16.28125Q139.76562 15.625 139.46875 15.359375Q139.0625 15.015625 138.26562 15.015625Q137.53125 15.015625 137.17188 15.28125Q136.8125 15.53125 136.64062 16.1875L135.60938 16.046875Q135.75 15.390625 136.07812 14.984375Q136.40625 14.578125 137.01562 14.359375Q137.625 14.140625 138.42188 14.140625Q139.21875 14.140625 139.71875 14.328125Q140.21875 14.515625 140.45312 14.796875Q140.6875 15.078125 140.78125 15.515625Q140.82812 15.78125 140.82812 16.484375L140.82812 17.890625Q140.82812 19.359375 140.89062 19.75Q140.96875 20.140625 141.17188 20.5L140.0625 20.5Q139.90625 20.171875 139.85938 19.734375ZM139.76562 17.375Q139.1875 17.609375 138.04688 17.78125Q137.39062 17.875 137.125 18.0Q136.85938 18.109375 136.70312 18.328125Q136.5625 18.546875 136.5625 18.828125Q136.5625 19.25 136.875 19.53125Q137.20312 19.8125 137.8125 19.8125Q138.42188 19.8125 138.89062 19.546875Q139.375 19.28125 139.59375 18.8125Q139.76562 18.453125 139.76562 17.765625L139.76562 17.375ZM142.76562 20.5L142.76562 11.90625L143.82812 11.90625L143.82812 20.5L142.76562 20.5Z" fill-rule="nonzero"/><path fill="#fbbc04" d="M161.0 11.5C161.0 10.947715 161.44771 10.5 162.0 10.5L172.0 10.5C172.55229 10.5 173.0 10.947715 173.0 11.5L173.0 21.5C173.0 22.052284 172.55229 22.5 172.0 22.5L162.0 22.5C161.44771 22.5 161.0 22.052284 161.0 21.5Z" fill-rule="nonzero"/><path fill="#1a1a1a" d="M186.04688 18.5L187.14062 18.625Q186.89062 19.578125 186.1875 20.109375Q185.48438 20.640625 184.40625 20.640625Q183.04688 20.640625 182.23438 19.796875Q181.4375 18.953125 181.4375 17.4375Q181.4375 15.875 182.25 15.015625Q183.0625 14.140625 184.34375 14.140625Q185.59375 14.140625 186.375 14.984375Q187.17188 15.828125 187.17188 17.375Q187.17188 17.46875 187.17188 17.65625L182.53125 17.65625Q182.59375 18.6875 183.10938 19.234375Q183.625 19.765625 184.40625 19.765625Q184.98438 19.765625 185.39062 19.46875Q185.8125 19.15625 186.04688 18.5ZM182.59375 16.796875L186.0625 16.796875Q186.0 16.0 185.67188 15.609375Q185.15625 15.0 184.35938 15.0Q183.625 15.0 183.125 15.484375Q182.64062 15.96875 182.59375 16.796875ZM192.85938 18.21875L193.89062 18.359375Q193.71875 19.421875 193.01562 20.03125Q192.3125 20.640625 191.29688 20.640625Q190.01562 20.640625 189.23438 19.8125Q188.46875 18.96875 188.46875 17.40625Q188.46875 16.40625 188.79688 15.65625Q189.14062 14.890625 189.8125 14.515625Q190.5 14.140625 191.3125 14.140625Q192.3125 14.140625 192.95312 14.65625Q193.60938 15.15625 193.79688 16.109375L192.76562 16.265625Q192.625 15.640625 192.25 15.328125Q191.875 15.0 191.34375 15.0Q190.54688 15.0 190.04688 15.578125Q189.54688 16.140625 189.54688 17.375Q189.54688 18.640625 190.03125 19.203125Q190.51562 19.765625 191.28125 19.765625Q191.90625 19.765625 192.3125 19.390625Q192.73438 19.015625 192.85938 18.21875ZM198.85938 18.21875L199.89062 18.359375Q199.71875 19.421875 199.01562 20.03125Q198.3125 20.640625 197.29688 20.640625Q196.01562 20.640625 195.23438 19.8125Q194.46875 18.96875 194.46875 17.40625Q194.46875 16.40625 194.79688 15.65625Q195.14062 14.890625 195.8125 14.515625Q196.5 14.140625 197.3125 14.140625Q198.3125 14.140625 198.95312 14.65625Q199.60938 15.15625 199.79688 16.109375L198.76562 16.265625Q198.625 15.640625 198.25 15.328125Q197.875 15.0 197.34375 15.0Q196.54688 15.0 196.04688 15.578125Q195.54688 16.140625 195.54688 17.375Q195.54688 18.640625 196.03125 19.203125Q196.51562 19.765625 197.28125 19.765625Q197.90625 19.765625 198.3125 19.390625Q198.73438 19.015625 198.85938 18.21875ZM205.04688 18.5L206.14062 18.625Q205.89062 19.578125 205.1875 20.109375Q204.48438 20.640625 203.40625 20.640625Q202.04688 20.640625 201.23438 19.796875Q200.4375 18.953125 200.4375 17.4375Q200.4375 15.875 201.25 15.015625Q202.0625 14.140625 203.34375 14.140625Q204.59375 14.140625 205.375 14.984375Q206.17188 15.828125 206.17188 17.375Q206.17188 17.46875 206.17188 17.65625L201.53125 17.65625Q201.59375 18.6875 202.10938 19.234375Q202.625 19.765625 203.40625 19.765625Q203.98438 19.765625 204.39062 19.46875Q204.8125 19.15625 205.04688 18.5ZM201.59375 16.796875L205.0625 16.796875Q205.0 16.0 204.67188 15.609375Q204.15625 15.0 203.35938 15.0Q202.625 15.0 202.125 15.484375Q201.64062 15.96875 201.59375 16.796875Z" fill-rule="nonzero"/><path fill="#34a853" d="M223.0 11.5C223.0 10.947715 223.44771 10.5 224.0 10.5L234.0 10.5C234.55229 10.5 235.0 10.947715 235.0 11.5L235.0 21.5C235.0 22.052284 234.55229 22.5 234.0 22.5L224.0 22.5C223.44771 22.5 223.0 22.052284 223.0 21.5Z" fill-rule="nonzero"/><path fill="#1a1a1a" d="M243.79688 20.5L243.79688 14.28125L244.73438 14.28125L244.73438 15.15625Q245.42188 14.140625 246.71875 14.140625Q247.28125 14.140625 247.75 14.34375Q248.23438 14.546875 248.46875 14.875Q248.70312 15.203125 248.79688 15.640625Q248.84375 15.9375 248.84375 16.671875L248.84375 20.5L247.79688 20.5L247.79688 16.71875Q247.79688 16.0625 247.67188 15.75Q247.54688 15.4375 247.23438 15.25Q246.92188 15.046875 246.5 15.046875Q245.82812 15.046875 245.32812 15.484375Q244.84375 15.90625 244.84375 17.09375L244.84375 20.5L243.79688 20.5ZM250.40625 17.390625Q250.40625 15.65625 251.35938 14.828125Q252.15625 14.140625 253.3125 14.140625Q254.59375 14.140625 255.40625 14.984375Q256.23438 15.8125 256.23438 17.296875Q256.23438 18.5 255.875 19.1875Q255.51562 19.875 254.8125 20.265625Q254.125 20.640625 253.3125 20.640625Q252.01562 20.640625 251.20312 19.8125Q250.40625 18.96875 250.40625 17.390625ZM251.48438 17.390625Q251.48438 18.578125 252.0 19.171875Q252.53125 19.765625 253.3125 19.765625Q254.10938 19.765625 254.625 19.171875Q255.14062 18.578125 255.14062 17.359375Q255.14062 16.203125 254.60938 15.609375Q254.09375 15.015625 253.3125 15.015625Q252.53125 15.015625 252.0 15.609375Q251.48438 16.1875 251.48438 17.390625ZM257.79688 20.5L257.79688 14.28125L258.73438 14.28125L258.73438 15.15625Q259.42188 14.140625 260.71875 14.140625Q261.28125 14.140625 261.75 14.34375Q262.23438 14.546875 262.46875 14.875Q262.70312 15.203125 262.79688 15.640625Q262.84375 15.9375 262.84375 16.671875L262.84375 20.5L261.79688 20.5L261.79688 16.71875Q261.79688 16.0625 261.67188 15.75Q261.54688 15.4375 261.23438 15.25Q260.92188 15.046875 260.5 15.046875Q259.82812 15.046875 259.32812 15.484375Q258.84375 15.90625 258.84375 17.09375L258.84375 20.5L257.79688 20.5ZM268.85938 18.21875L269.89062 18.359375Q269.71875 19.421875 269.01562 20.03125Q268.3125 20.640625 267.29688 20.640625Q266.01562 20.640625 265.23438 19.8125Q264.46875 18.96875 264.46875 17.40625Q264.46875 16.40625 264.79688 15.65625Q265.14062 14.890625 265.8125 14.515625Q266.5 14.140625 267.3125 14.140625Q268.3125 14.140625 268.95312 14.65625Q269.60938 15.15625 269.79688 16.109375L268.76562 16.265625Q268.625 15.640625 268.25 15.328125Q267.875 15.0 267.34375 15.0Q266.54688 15.0 266.04688 15.578125Q265.54688 16.140625 265.54688 17.375Q265.54688 18.640625 266.03125 19.203125Q266.51562 19.765625 267.28125 19.765625Q267.90625 19.765625 268.3125 19.390625Q268.73438 19.015625 268.85938 18.21875ZM270.40625 17.390625Q270.40625 15.65625 271.35938 14.828125Q272.15625 14.140625 273.3125 14.140625Q274.59375 14.140625 275.40625 14.984375Q276.23438 15.8125 276.23438 17.296875Q276.23438 18.5 275.875 19.1875Q275.51562 19.875 274.8125 20.265625Q274.125 20.640625 273.3125 20.640625Q272.01562 20.640625 271.20312 19.8125Q270.40625 18.96875 270.40625 17.390625ZM271.48438 17.390625Q271.48438 18.578125 272.0 19.171875Q272.53125 19.765625 273.3125 19.765625Q274.10938 19.765625 274.625 19.171875Q275.14062 18.578125 275.14062 17.359375Q275.14062 16.203125 274.60938 15.609375Q274.09375 15.015625 273.3125 15.015625Q272.53125 15.015625 272.0 15.609375Q271.48438 16.1875 271.48438 17.390625ZM277.79688 20.5L277.79688 14.28125L278.73438 14.28125L278.73438 15.15625Q279.42188 14.140625 280.71875 14.140625Q281.28125 14.140625 281.75 14.34375Q282.23438 14.546875 282.46875 14.875Q282.70312 15.203125 282.79688 15.640625Q282.84375 15.9375 282.84375 16.671875L282.84375 20.5L281.79688 20.5L281.79688 16.71875Q281.79688 16.0625 281.67188 15.75Q281.54688 15.4375 281.23438 15.25Q280.92188 15.046875 280.5 15.046875Q279.82812 15.046875 279.32812 15.484375Q278.84375 15.90625 278.84375 17.09375L278.84375 20.5L277.79688 20.5ZM284.78125 13.140625L284.78125 11.90625L285.84375 11.90625L285.84375 13.140625L284.78125 13.140625ZM283.45312 22.921875L283.64062 22.015625Q283.96875 22.09375 284.14062 22.09375Q284.46875 22.09375 284.625 21.875Q284.78125 21.671875 284.78125 20.8125L284.78125 14.28125L285.84375 14.28125L285.84375 20.84375Q285.84375 21.984375 285.54688 22.4375Q285.15625 23.03125 284.28125 23.03125Q283.84375 23.03125 283.45312 22.921875Z" fill-rule="nonzero"/></svg>